<svg width="21" height="20" viewBox="0 0 21 20" fill="none" xmlns="http://www.w3.org/2000/svg">
<path d="M11.2631 14.5632C11.4153 14.6391 11.5591 14.7109 11.6816 14.7869C11.6901 14.7911 11.6986 14.7964 11.707 14.8017C11.7155 14.8069 11.7239 14.8122 11.7324 14.8164C11.8761 14.8882 12.0114 14.922 12.1509 14.922C12.5017 14.922 12.7216 14.7025 12.7934 14.6307L14.2392 13.1871C14.3829 13.0436 14.6112 12.8705 14.8775 12.8705C15.1396 12.8705 15.3552 13.0351 15.4862 13.1786L11.2631 14.5632ZM11.2631 14.5632C11.0941 14.4787 10.9165 14.3901 10.7432 14.2803L11.2631 14.5632ZM15.8469 12.8322C15.6761 12.6481 15.3397 12.3705 14.8775 12.3705C14.4038 12.3705 14.052 12.6673 13.8859 12.8333L12.4401 14.2769C12.3771 14.3399 12.2845 14.422 12.1509 14.422C12.1013 14.422 12.0451 14.4119 11.9675 14.3748C11.963 14.3721 11.9564 14.368 11.9493 14.3638C11.9444 14.3609 11.9383 14.3573 11.9312 14.3534C11.7924 14.2685 11.6369 14.1909 11.4975 14.1213L11.4865 14.1158C11.3144 14.0299 11.1593 13.952 11.0107 13.8579L11.0102 13.8576C9.70565 13.0338 8.51509 11.9538 7.37734 10.5543L7.36098 10.5342L7.35953 10.5327C6.75129 9.75876 6.36278 9.12472 6.08837 8.46573L6.08765 8.46359L6.08266 8.44864C6.05281 8.35345 6.04196 8.28594 6.04876 8.2273C6.05407 8.1815 6.07371 8.10483 6.18016 7.99853L6.19174 7.98696C6.5664 7.65091 6.90938 7.30828 7.26143 6.94844C7.34534 6.86738 7.43065 6.78123 7.51168 6.69938C7.55097 6.6597 7.58925 6.62103 7.62589 6.58445L7.27259 6.23064L7.62589 6.58445C7.89743 6.3133 8.10866 5.97808 8.10866 5.57636C8.10866 5.17465 7.89743 4.83942 7.62589 4.56828L6.47453 3.4186C6.40701 3.34909 6.3397 3.28082 6.27438 3.21457L6.27221 3.21237C6.20491 3.1441 6.13977 3.07802 6.07591 3.0122L15.8469 12.8322ZM15.8469 12.8322L15.848 12.8333L15.848 12.8333M15.8469 12.8322L15.848 12.8333M15.848 12.8333L18.1755 15.1574C18.1757 15.1577 18.176 15.158 18.1763 15.1583C18.4514 15.4305 18.65 15.7685 18.651 16.166C18.6519 16.5599 18.4583 16.8997 18.1913 17.1778C18.0473 17.3324 17.8992 17.4762 17.754 17.6171C17.723 17.6472 17.6922 17.6772 17.6615 17.7071L17.6573 17.7112L17.6572 17.7112C17.3853 17.9702 17.1219 18.2299 16.8774 18.5173L16.8696 18.5264L16.8615 18.5351C16.3359 19.0963 15.6987 19.3645 14.9071 19.3645H14.9012C14.8416 19.3645 14.7601 19.3645 14.6801 19.3592M15.848 12.8333L6.07582 3.01211C5.81905 2.74731 5.56857 2.49269 5.3034 2.24494L5.303 2.24455L5.29666 2.23821L5.29666 2.23821C5.13019 2.07199 4.79287 1.79654 4.32618 1.79654C3.94219 1.79654 3.60609 1.98358 3.34168 2.23145L3.33592 2.23685L3.33033 2.24243L1.88883 3.68184C1.45428 4.11576 1.2129 4.63551 1.16058 5.24668L1.16044 5.24842C1.08906 6.11797 1.2549 7.01325 1.66365 8.10623C2.32545 9.89156 3.32167 11.5437 4.79128 13.3124L4.79281 13.3143C6.58317 15.4483 8.74016 17.1347 11.1977 18.3227L11.1999 18.3237C12.0859 18.7469 13.3246 19.2725 14.6801 19.3592M14.6801 19.3592C14.6798 19.3592 14.6796 19.3592 14.6794 19.3592L14.7126 18.8603L14.6807 19.3593C14.6805 19.3593 14.6803 19.3592 14.6801 19.3592ZM15.9544 12.7359L15.9543 12.7359L15.9608 12.7424L18.2816 15.0683L18.284 15.0707C18.6298 15.4126 18.7865 15.7915 18.7865 16.163C18.7865 16.5333 18.6314 16.92 18.288 17.2767L18.287 17.2778C18.1127 17.4599 17.9329 17.6355 17.7539 17.8059L17.7539 17.8059L17.7511 17.8086C17.7305 17.8285 17.7097 17.8486 17.6889 17.8687C17.4482 18.1009 17.1958 18.3445 16.9735 18.6135L16.9708 18.6168C16.9687 18.6192 16.9665 18.6216 16.9643 18.6243C16.9623 18.6266 16.9603 18.6291 16.9581 18.6317C16.4167 19.2097 15.7371 19.5 14.9028 19.5C14.8331 19.5 14.7531 19.4965 14.6645 19.4923C13.3157 19.4051 12.0913 18.8967 11.1321 18.4429C8.65353 17.2462 6.48267 15.548 4.67612 13.3942C3.17962 11.5976 2.18882 9.9366 1.52723 8.15452L1.52722 8.15449C1.2541 7.41897 0.92393 6.3572 1.01558 5.23903C1.07311 4.59288 1.3303 4.04448 1.78801 3.58744L1.78801 3.58744L1.78956 3.58589L3.22549 2.13939L3.22551 2.13937L3.22554 2.13934L3.22556 2.13932L3.22558 2.13929L3.22561 2.13927L3.22563 2.13925L3.22565 2.13922L3.22568 2.1392L3.2257 2.13918L3.22572 2.13915L3.22575 2.13913L3.22577 2.13911L3.22579 2.13909L3.22581 2.13906L3.22584 2.13904L3.22586 2.13902L3.22588 2.139L3.2259 2.13897L3.22593 2.13895L3.22595 2.13893L3.22597 2.13891L3.22599 2.13888L3.22602 2.13886L3.22604 2.13884L3.22606 2.13882L3.22608 2.1388L3.2261 2.13878L3.22612 2.13875L3.22615 2.13873L3.22617 2.13871L3.22619 2.13869L3.22621 2.13867L3.22623 2.13865L3.22625 2.13863L3.22627 2.13861L3.22629 2.13858L3.22631 2.13856L3.22634 2.13854L3.22636 2.13852L3.22638 2.1385L3.2264 2.13848L3.22642 2.13846L3.22644 2.13844L3.22646 2.13842L3.22648 2.1384L3.2265 2.13838L3.22652 2.13836L3.22654 2.13834L3.22656 2.13832L3.22658 2.1383L3.2266 2.13828L3.22662 2.13826L3.22664 2.13824L3.22666 2.13822L3.22668 2.1382L3.2267 2.13818L3.22672 2.13816L3.22673 2.13814L3.22675 2.13813L3.22677 2.13811L3.22679 2.13809L3.22681 2.13807L3.22683 2.13805L3.22685 2.13803L3.22687 2.13801L3.22689 2.13799L3.2269 2.13797L3.22692 2.13796L3.22694 2.13794L3.22696 2.13792L3.22698 2.1379L3.227 2.13788L3.22701 2.13786L3.22703 2.13785L3.22705 2.13783L3.22707 2.13781L3.22709 2.13779L3.2271 2.13777L3.22712 2.13776L3.22714 2.13774L3.22716 2.13772L3.22718 2.1377L3.22719 2.13769L3.22721 2.13767L3.22723 2.13765L3.22725 2.13763L3.22726 2.13762L3.22728 2.1376L3.2273 2.13758L3.22731 2.13757L3.22733 2.13755L3.22735 2.13753L3.22737 2.13751L3.22738 2.1375L3.2274 2.13748L3.22742 2.13746L3.22743 2.13745L3.22745 2.13743L3.22747 2.13741L3.22748 2.1374L3.2275 2.13738L3.22752 2.13736L3.22753 2.13735L3.22755 2.13733L3.22756 2.13732L3.22758 2.1373L3.2276 2.13728L3.22761 2.13727L3.22763 2.13725L3.22764 2.13724L3.22766 2.13722L3.22768 2.1372L3.22769 2.13719L3.22771 2.13717L3.22772 2.13716L3.22774 2.13714L3.22776 2.13713L3.22777 2.13711L3.22779 2.13709L3.2278 2.13708L3.22782 2.13706L3.22783 2.13705L3.22785 2.13703L3.22786 2.13702L3.22788 2.137L3.22789 2.13699L3.22791 2.13697L3.22792 2.13696L3.22794 2.13694L3.22795 2.13693L3.22797 2.13691L3.22798 2.1369L3.228 2.13688L3.22801 2.13687L3.22803 2.13685L3.22804 2.13684L3.22806 2.13682L3.22807 2.13681L3.22809 2.13679L3.2281 2.13678L3.22812 2.13676L3.22813 2.13675L3.22815 2.13673L3.22816 2.13672L3.22817 2.13671L3.22819 2.13669L3.2282 2.13668L3.22822 2.13666L3.22823 2.13665L3.22825 2.13663L3.22826 2.13662L3.22827 2.13661L3.22829 2.13659L3.2283 2.13658L3.22832 2.13656L3.22833 2.13655L3.22834 2.13654L3.22836 2.13652L3.22837 2.13651L3.22839 2.13649L3.2284 2.13648L3.22841 2.13647L3.22843 2.13645L3.22844 2.13644L3.22846 2.13643L3.22847 2.13641L3.22848 2.1364L3.2285 2.13639L3.22851 2.13637L3.22852 2.13636L3.22854 2.13634L3.22855 2.13633L3.22856 2.13632L3.22858 2.1363L3.22859 2.13629L3.2286 2.13628L3.22862 2.13626L3.22863 2.13625L3.22864 2.13624L3.22866 2.13622L3.22867 2.13621L3.22868 2.1362L3.2287 2.13618L3.22871 2.13617L3.22872 2.13616L3.22874 2.13615L3.22875 2.13613L3.22876 2.13612L3.22878 2.13611L3.22879 2.13609L3.2288 2.13608L3.22881 2.13607L3.22883 2.13605L3.22884 2.13604L3.22885 2.13603L3.22887 2.13602L3.22888 2.136L3.22889 2.13599L3.22891 2.13598L3.22892 2.13596L3.22893 2.13595L3.22894 2.13594L3.22896 2.13593L3.22897 2.13591L3.22898 2.1359L3.22899 2.13589L3.22901 2.13587L3.22902 2.13586L3.22903 2.13585L3.22905 2.13584L3.22906 2.13582L3.22907 2.13581L3.22908 2.1358L3.2291 2.13579L3.22911 2.13577L3.22912 2.13576L3.22913 2.13575L3.22915 2.13574L3.22916 2.13572L3.22917 2.13571L3.22918 2.1357L3.2292 2.13569L3.22921 2.13567L3.22922 2.13566L3.22923 2.13565L3.22925 2.13564L3.22926 2.13562L3.22927 2.13561L3.22928 2.1356L3.2293 2.13559L3.22931 2.13557L3.22932 2.13556L3.22933 2.13555L3.22935 2.13554L3.22936 2.13552L3.22937 2.13551L3.22938 2.1355L3.2294 2.13549L3.22941 2.13547L3.22942 2.13546L3.22943 2.13545L3.22945 2.13544L3.22946 2.13543L3.22947 2.13541L3.22948 2.1354L3.22949 2.13539L3.22951 2.13538L3.22952 2.13536L3.22953 2.13535L3.22954 2.13534L3.22956 2.13533L3.22957 2.13531L3.22958 2.1353L3.22959 2.13529L3.22961 2.13528L3.22962 2.13526L3.22963 2.13525L3.22964 2.13524L3.22966 2.13523L3.22967 2.13522L3.22968 2.1352L3.22969 2.13519L3.22971 2.13518L3.22972 2.13517L3.22973 2.13515L3.22974 2.13514L3.22976 2.13513L3.22977 2.13512L3.22978 2.1351L3.22979 2.13509L3.2298 2.13508L3.22982 2.13507L3.22983 2.13505L3.22984 2.13504L3.22986 2.13503L3.22987 2.13502L3.22988 2.135L3.22989 2.13499L3.22991 2.13498L3.22992 2.13497L3.22993 2.13495L3.22994 2.13494L3.22995 2.13493C3.57225 1.80823 3.94986 1.65683 4.31772 1.65683C4.68548 1.65683 5.05361 1.80804 5.3824 2.13297L5.38859 2.13909L5.39499 2.14498C5.65794 2.38736 5.91526 2.6481 6.16683 2.90764C6.29837 3.04762 6.43735 3.1864 6.5657 3.31456L6.56843 3.31729L7.72248 4.46966C8.08855 4.8352 8.24157 5.22163 8.24157 5.57636C8.24157 5.9311 8.08855 6.31753 7.72248 6.68306C7.66174 6.74371 7.60127 6.80517 7.54261 6.8648L7.54182 6.8656C7.48237 6.92603 7.42474 6.98459 7.36739 7.04186L7.36738 7.04185L7.36502 7.04424C7.33488 7.07475 7.30478 7.10524 7.27471 7.13571C6.98916 7.42503 6.70582 7.71212 6.40277 7.9889L6.13482 8.23362L6.28442 8.56423C6.5637 9.18139 6.94352 9.77779 7.48942 10.4668L7.48938 10.4668L7.49375 10.4722C8.61296 11.8453 9.78925 12.9178 11.0926 13.7444L11.0926 13.7444L11.097 13.7471C11.2393 13.8353 11.4005 13.9158 11.5446 13.9877L11.5521 13.9915C11.5919 14.0121 11.6294 14.0314 11.666 14.0501C11.7343 14.0851 11.799 14.1182 11.8676 14.1551L12.1943 14.3307L12.4571 14.0691L13.7929 12.7394L13.7935 12.7389C14.1426 12.3903 14.5193 12.235 14.8859 12.235C15.2548 12.235 15.6243 12.3927 15.9544 12.7359ZM18.1932 17.1736L17.8345 16.8275C17.9642 16.6915 18.0541 16.556 18.1041 16.4211C18.1505 16.4522 18.1948 16.4932 18.2323 16.5459C18.3031 16.6453 18.3249 16.7516 18.3249 16.8357C18.3249 16.9885 18.2568 17.0937 18.2227 17.1385C18.2131 17.1511 18.2032 17.1628 18.1932 17.1736ZM6.15629 8.01797L6.15641 8.01787L6.15629 8.01797Z" fill="#2478FB" stroke="#00B2FF"/>
<path d="M11.5082 3.63464L11.4244 4.12756C12.6615 4.33799 13.7892 4.92206 14.6847 5.81621C15.5795 6.70968 16.164 7.83461 16.3751 9.06837C16.3817 9.11276 16.3544 9.14385 16.3236 9.15112L16.3135 9.15237L16.3009 9.15382C16.3004 9.15388 16.2999 9.15392 16.2995 9.15395C16.262 9.1529 16.2377 9.12752 16.2329 9.0989L16.2329 9.0989L16.2325 9.09646C16.0247 7.88819 15.4558 6.78966 14.5796 5.91482C13.7044 5.04089 12.6043 4.46762 11.3922 4.26435L11.3922 4.26434L11.3894 4.26389C11.3739 4.26138 11.3618 4.25381 11.3523 4.24008C11.3421 4.22541 11.3374 4.20673 11.341 4.18675C11.3476 4.1496 11.3828 4.12085 11.4283 4.12821L11.5082 3.63464ZM11.5082 3.63464C12.8483 3.86258 14.0699 4.49576 15.038 5.4624C16.006 6.42904 16.6401 7.64895 16.8684 8.98705M11.5082 3.63464C11.1954 3.58399 10.9037 3.79083 10.8488 4.09897C10.7938 4.40711 10.9967 4.70681 11.3095 4.75747L16.8684 8.98705M16.8684 8.98705C16.9191 9.29941 16.712 9.59489 16.3992 9.64554C16.3958 9.64597 16.3924 9.6464 16.3891 9.64682C16.3593 9.65057 16.3324 9.65399 16.3019 9.65399C16.0272 9.65399 15.7862 9.45981 15.7397 9.18122L16.8684 8.98705Z" fill="#2478FB" stroke="#00B2FF"/>
<path d="M19.9985 8.90658L19.9984 8.90658L19.9991 8.91021C20.0018 8.92521 19.9986 8.94059 19.9885 8.95469C19.9791 8.9678 19.9673 8.97497 19.9547 8.97755L19.9511 8.978L19.9407 8.97931L19.928 8.98076C19.9275 8.98081 19.927 8.98085 19.9267 8.98089C19.8891 8.97984 19.8648 8.95446 19.86 8.92584L19.8598 8.92447C19.5083 6.85403 18.5289 4.96593 17.0274 3.46656L17.0269 3.46604C15.5265 1.97231 13.6371 0.990206 11.5643 0.63888C11.5222 0.631102 11.4979 0.596651 11.5025 0.55697C11.5122 0.513684 11.5508 0.496263 11.5772 0.500965L11.5808 0.501595C13.6848 0.85979 15.5988 1.84921 17.124 3.37217C18.6491 4.89512 19.6398 6.80616 19.9985 8.90658Z" fill="#2478FB" stroke="#00B2FF"/>
</svg>
